<svg xmlns="http://www.w3.org/2000/svg" viewBox="0 0 300 300"><defs><style>.cls-1{fill:#ddf8e1;}.cls-2{fill:#45e38d;}.cls-3{fill:#00cc49;}.cls-4{fill:#006d41;}.cls-5{fill:#e5a200;}.cls-6{fill:#846c6c;}.cls-7{fill:#ffb288;}.cls-8{fill:#9f7e7d;}.cls-9{fill:#fddd7c;}</style></defs><g id="Layer_2" data-name="Layer 2"><g id="_ÎÓÈ_1" data-name="—ÎÓÈ_1"><circle class="cls-1" cx="150" cy="150" r="150" transform="translate(-62.13 150) rotate(-45)"/><ellipse class="cls-2" cx="147.45" cy="199.51" rx="74.26" ry="51.13"/><path class="cls-3" d="M115.84,153.24c-13.32,9.33-21.65,22.61-21.65,37.36,0,28.24,30.54,51.13,68.22,51.13,18.28,0,34.88-5.39,47.13-14.17-13.27,13.9-36.12,23.08-62.09,23.08-41,0-74.25-22.89-74.25-51.13C73.2,179.06,90.64,161.41,115.84,153.24Z"/><path class="cls-2" d="M210.16,222.32l15.37-2a5.5,5.5,0,0,0,4.76-5L232.11,193a2.92,2.92,0,0,0-2.91-3.16h-19Z"/><path class="cls-2" d="M185.54,167.26c-4.37,0-10.14-4.62-10.19-9.44,0-11,4.38-19.1,10.91-23.57a5,5,0,0,1,7.85,4.15v23.35a5.5,5.5,0,0,1-5.51,5.51Z"/><path class="cls-3" d="M186.3,134.16c-3.43,4.58-5.52,10.79-5.52,18.42,0,4.82,5.82,9.44,10.19,9.44H194a5.25,5.25,0,0,1-5.25,5.24h-3.32c-4.37,0-10.15-4.62-10.19-9.44C175.27,146.7,179.7,138.61,186.3,134.16Z"/><path class="cls-2" d="M169,264.28H184a3.93,3.93,0,0,0,3.87-3.24l5.66-31.37H165v30.68A3.93,3.93,0,0,0,169,264.28Z"/><path class="cls-2" d="M118.85,245.16V260a4.29,4.29,0,0,1-4.3,4.3H100.32a4.31,4.31,0,0,1-4.26-3.71l-3.71-26.84h15.07A11.43,11.43,0,0,1,118.85,245.16Z"/><path class="cls-3" d="M81,197.24c-3.27,4.86-9.83,6.07-15.2,4.52a17,17,0,0,1-11.65-12c-1.52-5.77.31-12.71,6.14-15.3,5.19-2.3,12,.77,12.27,6.8a7,7,0,0,1-4.2,7,6.8,6.8,0,0,1-7.81-1.9c-1.56-1.92,1.24-4.6,2.82-2.65a2.94,2.94,0,0,0,4.86-.19A4,4,0,0,0,66.29,178c-5.49-2.55-9.14,4.09-8.76,8.66a13.14,13.14,0,0,0,7.66,10.78c3.92,1.73,9.86,1.73,12.51-2.21,1.39-2.06,4.71-.06,3.31,2Z"/><ellipse class="cls-4" cx="200.45" cy="184.83" rx="3.26" ry="4.98"/><path class="cls-3" d="M135,157.39a77.3,77.3,0,0,1,26.28,0,2.68,2.68,0,0,0,3.08-2,2.6,2.6,0,0,0-2.21-3,82.44,82.44,0,0,0-28,0,2.62,2.62,0,0,0-2.21,3A2.69,2.69,0,0,0,135,157.39Z"/><ellipse class="cls-5" cx="144.44" cy="101.37" rx="19" ry="18.98"/><path class="cls-6" d="M98.7,55.88c9.9-4.78,15.72-7.59,20.07-9.67-2.5.5-4.74,1-6,1.23a10.28,10.28,0,0,1-10.21-4A2.33,2.33,0,0,1,104,39.69c21.8-3.8,22.25-3.88,33.75-5.77,3-.49,6.09-1,9-.09a12.49,12.49,0,0,1,4.32,2.44l-.33.39.3.13-6.72,15.38-.05,1.3c-4.72,0-9.31,2.14-13.24,4.84-3.23,2.21-11.4,12-14.07,15a12.14,12.14,0,0,1-12.49,3.5,2.75,2.75,0,0,1-1.29-4.52c4.89-5.28,8.47-9.12,11.27-12.15l-3.3,1.73a12.18,12.18,0,0,1-12.91-1.29A2.76,2.76,0,0,1,98.7,55.88Z"/><path class="cls-7" d="M122.51,77.88,121,90.45l2.61-12.58A4.1,4.1,0,0,0,122.51,77.88Z"/><path class="cls-8" d="M189.34,5.22,187.72,9,182,22.24c-12.14,3.57-29.83,8.51-33.17,10.11-5.57,2.67-12.34,3.71-16.15,8.56a16.24,16.24,0,0,0-2.63,5.36l-4.41,14a55.7,55.7,0,0,0-2.21,10.1l-.95,7.55a5,5,0,0,1,.95,0c-.68,3.41-1.5,7.5-2.51,12.59a2.75,2.75,0,0,0,3.47,3.18,12.11,12.11,0,0,0,8.8-9.51c.72-3.93,2.54-16.57,4.13-20.14,2.18-4.9,5.44-9.61,10.29-11.89s11.47-1.35,14.37,3.16c2,3.15,1.87,7.26.86,10.87s-2.79,7-3.83,10.57a27.49,27.49,0,0,0-1,9.46c.16,2.41.71,4.95,2.65,6.52a4.33,4.33,0,0,0,3.49.91c2-.39,2.58-2,3.14-3.48l7.5-20.17a9.83,9.83,0,0,1,2-3.69c1.35-1.34,3.32-1.78,5.13-2.36a29,29,0,0,0,16.6-14.6h0l16.4-26.74,3.66-6A149.53,149.53,0,0,0,189.34,5.22Z"/><ellipse class="cls-2" cx="135.74" cy="278.43" rx="22.61" ry="4.23"/><ellipse class="cls-2" cx="202.28" cy="274.96" rx="21.6" ry="4.04"/><path class="cls-2" d="M245.74,262.74c-4.41-3-46.85-5.29-98.56-5.29-42.21,0-78.24,1.55-92.46,3.74-1.88-.26-3.93-.47-6.1-.64,3.54,3.24,7.24,6.33,11.08,9.23,4-.85,6.8-1.92,7.66-3.1,18,1.44,47.05,2.38,79.82,2.38,25.72,0,49.14-.58,66.73-1.52.85,2.13,10.84,3.86,23.74,4.19q5.81-4.19,11.18-8.89Z"/><path class="cls-2" d="M76.85,275.57c0-1.91-6.21-3.54-15-4.23q5,3.66,10.36,6.92C75.11,277.5,76.85,276.57,76.85,275.57Z"/><path class="cls-5" d="M82.09,241.1v-3.52c0-1.76-7.58-3.19-16.94-3.19a80.93,80.93,0,0,0-8.37.42A12.36,12.36,0,0,0,44.58,223H39.76v0c-6.12.11-12,3.89-15.19,9.27a150.64,150.64,0,0,0,45.25,44.51c3-.65,4.81-1.49,4.92-2.42v-3.42a19.43,19.43,0,0,0,6.63-2.25,2,2,0,0,0,.59-.53,1.28,1.28,0,0,0,.36-.85,1.2,1.2,0,0,0-.23-.67v-3.1a.8.8,0,0,0-.15-.42.82.82,0,0,0,.15-.36v-4.28c0-.68-1.1-1.3-3-1.81V254c1.81-.5,2.9-1.1,3-1.74v-3.83c1.31-.44,2.08-1,2.14-1.49v-4.29C84.23,242.09,83.45,241.56,82.09,241.1Z"/><path class="cls-5" d="M213.83,260.33v0S213.84,260.3,213.83,260.33Z"/><path class="cls-5" d="M211.8,254.89s0,0,0,0S211.81,254.86,211.8,254.89Z"/><path class="cls-5" d="M213.83,249.82s0,0,0,0S213.84,249.79,213.83,249.82Z"/><path class="cls-5" d="M216,244.5v0S216,244.47,216,244.5Z"/><path class="cls-5" d="M216,239.44s0,0,0,0S216,239.41,216,239.44Z"/><path class="cls-5" d="M213.71,234.32s0,0,0,0S213.72,234.29,213.71,234.32Z"/><path class="cls-5" d="M213.71,229.25v0S213.72,229.22,213.71,229.25Z"/><path class="cls-5" d="M259.32,239.78h-3.38c-.24,0-.48,0-.72,0h-.52a12.7,12.7,0,0,0-4.85,1.13v-3.32c0-.58-.83-1.12-2.27-1.59v-3.52a.72.72,0,0,0-.15-.42.79.79,0,0,0,.15-.36V227.4c0-1.76-7.58-3.19-16.93-3.19s-16.94,1.43-16.93,3.22v4.21s0,0,0,0a.79.79,0,0,0,.15.37.82.82,0,0,0-.16.45v4.21s0,0,0,0c.05.56.87,1.08,2.25,1.54v3.53s0,0,0,0a.81.81,0,0,0,.16.37.77.77,0,0,0-.17.45v3.74c-1.36.47-2.15,1-2.14,1.58v3.53c-1.3.46-2,1-2,1.54v4.2s0,.05,0,.05c.05.52.78,1,2,1.45v3.94s0,.05,0,.05a.7.7,0,0,0,.15.36.75.75,0,0,0-.16.45v1.63a91.22,91.22,0,0,0-11.71-.7c-11.27,0-20.4,1.72-20.39,3.88v5.07s0,.05,0,.05c.2,2.09,9.24,3.78,20.39,3.78s20.16-1.68,20.4-3.77v-2.95a81.73,81.73,0,0,0,8.23.4,78.35,78.35,0,0,0,8.54-.44q4.32-3.19,8.39-6.71v-.27s0-.07,0-.1l.2.21A150.9,150.9,0,0,0,268,242.58,16.59,16.59,0,0,0,259.32,239.78Z"/><path class="cls-5" d="M117,273.82s0,0,0,0S117,273.78,117,273.82Z"/><path class="cls-5" d="M155.21,269.71v-4.23a1.11,1.11,0,0,0-.39-.76c1.64-.54,2.61-1.16,2.69-1.82v-5.17c0-2.12-9.14-3.84-20.41-3.84s-20.4,1.72-20.39,3.88v5.06s0,.06,0,.06a1.09,1.09,0,0,0,.4.68c-1.72.57-2.71,1.23-2.71,1.94v5.07s0,.05,0,.05c.07.66,1,1.27,2.57,1.81v4.25s0,.05,0,.05c.2,2.09,9.24,3.78,20.38,3.78s20.16-1.68,20.4-3.77v-5.16C157.79,270.91,156.85,270.27,155.21,269.71Z"/><path class="cls-5" d="M114.4,267.71s0,0,0,0S114.41,267.67,114.4,267.71Z"/><path class="cls-5" d="M116.7,260s0,0,0,0S116.71,259.93,116.7,260Z"/><path class="cls-5" d="M181.73,270.58v0S181.74,270.54,181.73,270.58Z"/><path class="cls-9" d="M73.27,270.62l.14-.07c.85-.42,1.33-.88,1.33-1.36,0-1-2-1.88-5.22-2.56a43.81,43.81,0,0,0,10.31-1.5,9.92,9.92,0,0,0,1-.4c.78-.37,1.22-.77,1.22-1.19a.8.8,0,0,0-.15-.42c-.41.57-1.62,1.1-3.41,1.53-.68.17-1.46.32-2.3.46a56.29,56.29,0,0,1-10.39.91l-1.09-.13c-2.65-.3-5.68-.49-8.93-.53h-.43c-.48-.07-.93-.16-1.34-.24l-.28-.05,1.4,1.16H56a80.76,80.76,0,0,1,8.09.51c4.54.54,7.53,1.44,7.53,2.46,0,.64-1.14,1.22-3.08,1.71a42.59,42.59,0,0,1-6,.92l1.11.8a57.39,57.39,0,0,0,5.73-.82A18.19,18.19,0,0,0,73.27,270.62Z"/><path class="cls-9" d="M79.11,256.67v.66a.88.88,0,0,1-.23.45c.37.22.57.46.57.7,0,.92-3,1.73-7.31,2.16-2.07.2-4.45.31-7,.31s-4.91-.11-7-.31c-1.48-.15-2.81-.34-3.91-.56a43.2,43.2,0,0,1-5-.76l-.1.19a19,19,0,0,0,5.74,1.5c1,.15,2.12.27,3.29.37,2.13.18,4.49.29,7,.29s4.85-.11,7-.29c1.19-.1,2.29-.22,3.31-.37a21,21,0,0,0,5.44-1.35c.78-.37,1.22-.77,1.22-1.18C82.09,257.8,81,257.18,79.11,256.67Z"/><path class="cls-9" d="M59.61,256.19c.84,0,1.69,0,2.56,0,2,0,3.89-.07,5.66-.19s3.15-.26,4.51-.45a23.23,23.23,0,0,0,5.22-1.23,59.34,59.34,0,0,1-9.48,1l-.92,0c-1.55.1-3.23.15-5,.15-.92,0-1.82,0-2.69,0a38.77,38.77,0,0,1-10.2-1.36v1a45.71,45.71,0,0,0,5.7.83C56.43,256.05,58,256.15,59.61,256.19Z"/><path class="cls-9" d="M53.55,250.29c1,.17,2.07.33,3.24.45a78.17,78.17,0,0,0,8.36.42c1.82,0,3.56-.06,5.2-.15,1.21-.08,2.36-.18,3.43-.3a24.92,24.92,0,0,0,7.09-1.56,3.25,3.25,0,0,0,1-.64,34,34,0,0,1-6.2,1.14,43.08,43.08,0,0,1-5.1.61c-1.66.12-3.48.19-5.39.19A69.56,69.56,0,0,1,57,250c-2.95-.36-5.09-.9-5.84-1.53-.34.33-.69.65-1.06.95A21,21,0,0,0,53.55,250.29Z"/><path class="cls-9" d="M82.09,241.1v.77a1.14,1.14,0,0,1-.5.71s0,0,0,.07c0,1.11-4.21,2-10,2.37-1.36.07-2.8.11-4.29.11-2,0-3.92-.07-5.66-.2l-.9,0a60.73,60.73,0,0,1-6.31-.62l-.24.4c.81.19,1.74.36,2.76.51,1.19.17,2.5.32,3.91.42,2,.16,4.16.24,6.44.24,1.44,0,2.83,0,4.16-.09s2.78-.18,4-.31a26.4,26.4,0,0,0,7.51-1.6c.78-.37,1.22-.77,1.22-1.19S83.45,241.56,82.09,241.1Z"/><path class="cls-9" d="M65.15,240.78a77.83,77.83,0,0,0,8-.39c1.17-.12,2.26-.26,3.25-.43a18.24,18.24,0,0,0,4.46-1.19c.78-.37,1.22-.77,1.22-1.19,0-1.76-7.58-3.19-16.94-3.19a80.93,80.93,0,0,0-8.37.42l0,.76a69.8,69.8,0,0,1,8.34-.46c7.9,0,14.3,1.11,14.3,2.47,0,.87-2.55,1.63-6.41,2.07a70.58,70.58,0,0,1-7.89.41c-2.09,0-4.08-.08-5.87-.22-1.05-.08-2-.18-2.94-.31-.06.25-.12.49-.19.72v0c1,.12,2.12.22,3.27.3C61.2,240.71,63.14,240.78,65.15,240.78Z"/><path class="cls-9" d="M247.58,263.92l-.74.62A2.18,2.18,0,0,0,247.58,263.92Z"/><path class="cls-9" d="M247.69,263.44l-.21-.23c-.65.75-2.7,1.42-5.64,1.9a57.35,57.35,0,0,1-11.08.91,58.31,58.31,0,0,1-11.1-.91c-3-.5-5.1-1.2-5.66-2a.75.75,0,0,0-.16.45c.08,1.75,7.62,3.17,16.92,3.17,7.13,0,13.22-.84,15.72-2a3,3,0,0,0,.36-.19l.74-.62a.71.71,0,0,0,.12-.38S247.69,263.47,247.69,263.44Z"/><path class="cls-9" d="M213.83,260.33v0S213.84,260.3,213.83,260.33Z"/><path class="cls-9" d="M237.75,260.64c-2.07.2-4.45.31-7,.31s-4.91-.11-7-.31a32.28,32.28,0,0,1-4.92-.79,27.35,27.35,0,0,1-4.94-1.05c.48.9,2.95,1.69,6.56,2.21,1,.15,2.12.27,3.29.37,2.13.18,4.49.29,7,.29s4.85-.11,7-.29c1.18-.1,2.28-.22,3.3-.37a26.92,26.92,0,0,0,4.21-.89c-.21-.35-.4-.7-.58-1.07C243.74,259.73,241.18,260.3,237.75,260.64Z"/><path class="cls-9" d="M211.8,254.89s0,0,0,0S211.81,254.86,211.8,254.89Z"/><path class="cls-9" d="M221,255.87c1.42.14,3,.24,4.56.3,1,0,2.1.06,3.2.06,1.86,0,3.65-.06,5.32-.16s3.11-.25,4.46-.43a28.8,28.8,0,0,0,4.71-1v0a2.7,2.7,0,0,0,0-.28,57.35,57.35,0,0,1-8.65.94l-.56,0c-1.62.11-3.39.17-5.23.17q-1.71,0-3.3-.06c-6.31-.26-11-1.24-11-2.41h0a1.16,1.16,0,0,1-.59-.78s0-.05,0-.05v-.67c-1.3.46-2,1-2,1.54C211.87,254.29,215.58,255.35,221,255.87Z"/><path class="cls-9" d="M213.84,249.85s0-.06,0,0S213.84,249.84,213.84,249.85Z"/><path class="cls-9" d="M216,246.93s0,0,0,0v-.47c-1.36.47-2.15,1-2.14,1.58,0,.94,2.24,1.78,5.71,2.36,1,.16,2.08.31,3.25.42,2.37.24,5.08.38,8,.38,2.05,0,4-.07,5.81-.2,1.19-.08,2.33-.19,3.38-.31s2.22-.31,3.16-.5c0-.25.08-.5.13-.75-.63.09-1.3.18-2,.25a45.12,45.12,0,0,1-4.54.57c-1.81.14-3.82.23-6,.23a70,70,0,0,1-7.84-.41c-3.89-.44-6.46-1.21-6.46-2.07a.61.61,0,0,1,.09-.28A1.14,1.14,0,0,1,216,246.93Z"/><path class="cls-9" d="M216,244.5v0S216,244.47,216,244.5Z"/><path class="cls-9" d="M237.2,245c-1.36.07-2.8.11-4.29.11-2.27,0-4.41-.09-6.32-.25a39,39,0,0,1-4.78-.67c-3-.49-5.11-1.19-5.66-2a.77.77,0,0,0-.17.45c.05,1,2.62,1.92,6.58,2.5,1.19.17,2.5.32,3.92.42,2,.16,4.15.24,6.43.24,1.44,0,2.83,0,4.16-.09s2.78-.18,4-.31c1.49-.15,2.84-.35,4-.58a10.87,10.87,0,0,1,.78-1c-.59.14-1.23.26-1.91.37A47,47,0,0,1,237.2,245Z"/><path class="cls-9" d="M216,239.44s0,0,0,0S216,239.41,216,239.44Z"/><path class="cls-9" d="M247.58,236v.77a1,1,0,0,1-.41.64.58.58,0,0,1,0,.18c0,.93-3,1.74-7.32,2.17-2.06.2-4.44.31-7,.31s-4.68-.1-6.68-.29l-.39,0a47.42,47.42,0,0,1-9.15-1.25,17.38,17.38,0,0,0,5.94,1.62c1,.15,2.12.27,3.3.37,2.13.18,4.49.29,7,.29s4.84-.11,7-.29c1.18-.1,2.29-.23,3.31-.37a21.14,21.14,0,0,0,5.44-1.35c.78-.37,1.22-.77,1.22-1.19C249.85,237,249,236.46,247.58,236Z"/><path class="cls-9" d="M213.71,234.32s0,0,0,0S213.72,234.29,213.71,234.32Z"/><path class="cls-9" d="M225.23,235.49c1.7.11,3.52.17,5.42.17,2.82,0,5.47-.13,7.81-.36,1.21-.12,2.33-.26,3.34-.43a18.86,18.86,0,0,0,4.56-1.21c.78-.37,1.22-.77,1.22-1.19a.72.72,0,0,0-.15-.42c-.56.79-2.66,1.49-5.71,2-1,.2-2.11.38-3.4.52a69.87,69.87,0,0,1-7.67.39c-2,0-3.85-.07-5.56-.2a39.88,39.88,0,0,1-5.55-.72c-3-.49-5.1-1.19-5.66-2a.82.82,0,0,0-.16.45c.05,1.14,3.25,2.13,8,2.69C222.84,235.31,224,235.42,225.23,235.49Z"/><path class="cls-9" d="M213.71,229.25v0S213.72,229.22,213.71,229.25Z"/><path class="cls-9" d="M220.37,229.94c1,.14,2.12.27,3.3.37,2.12.18,4.49.28,7,.28s4.84-.1,7-.28c1.18-.1,2.28-.23,3.3-.37a21.45,21.45,0,0,0,5.44-1.35c.78-.37,1.22-.77,1.22-1.19,0-1.76-7.58-3.19-16.93-3.19s-16.94,1.43-16.93,3.22C213.77,228.45,216.37,229.36,220.37,229.94Zm10.28-5c7.89,0,14.3,1.1,14.3,2.47,0,.93-3,1.74-7.32,2.16-2.07.21-4.45.32-7,.32s-4.92-.11-7-.32c-4.37-.42-7.32-1.23-7.32-2.16C216.35,226,222.75,224.93,230.65,224.93Z"/><path class="cls-9" d="M47.82,255.38a5.41,5.41,0,0,0,.77-.44,1.56,1.56,0,0,0,.68-.84.76.76,0,0,0,0-.15c0-.46-.43-.9-1.22-1.31a1.57,1.57,0,0,1,.23-.2.45.45,0,0,1,0-.19s0-.05,0-.05v-1a9.21,9.21,0,0,0-1.94.71l0,0a18,18,0,0,1-1.76.76,8.19,8.19,0,0,1,.76.33c.56.3.86.61.86.93,0,0,0,.06,0,.09-.05.29-.34.58-.85.85h0a10.08,10.08,0,0,1-1.81.66l.9.91.92-.22A14.76,14.76,0,0,0,47.82,255.38Z"/><path class="cls-9" d="M50.73,239.26c.06-.25.11-.5.16-.75l.09-.6c0-.25.06-.5.08-.75a12.25,12.25,0,0,0,0-1.35,11,11,0,0,0-11.2-11.07,14,14,0,0,0-2.74.25l10.93,20A17.24,17.24,0,0,0,49.36,243,15.44,15.44,0,0,0,50.73,239.26Z"/><path class="cls-9" d="M117,273.82s0,0,0,0S117,273.78,117,273.82Z"/><path class="cls-9" d="M155.21,269.71v.94a1.34,1.34,0,0,1-.6.84s0,.06,0,.1c0,1.64-7.72,3-17.23,3-2.42,0-4.73-.09-6.82-.24a60.12,60.12,0,0,1-12.69-1.62c2.55,1.57,10.31,2.72,19.51,2.72,8.59,0,15.93-1,18.94-2.42.93-.44,1.46-.92,1.46-1.42C157.79,270.91,156.85,270.27,155.21,269.71Z"/><path class="cls-9" d="M114.4,267.71s0,0,0,0S114.41,267.67,114.4,267.71Z"/><path class="cls-9" d="M127.89,269.1c2.16.14,4.49.22,6.91.22,3.5,0,6.78-.17,9.65-.46,1.42-.14,2.73-.31,3.92-.51a22.87,22.87,0,0,0,5.37-1.44c.94-.45,1.47-.93,1.47-1.43a1.11,1.11,0,0,0-.39-.76,25.36,25.36,0,0,1-2.79.72v0c0,1-3.07,1.95-7.72,2.49a86,86,0,0,1-9.51.49c-2.52,0-4.91-.09-7.07-.26-6-.47-10.15-1.51-10.15-2.72,0-.36.37-.71,1.06-1a4.82,4.82,0,0,1-1.52-.88c-1.72.57-2.71,1.23-2.71,1.94.07,1.35,3.8,2.53,9.41,3.21C125.09,268.87,126.45,269,127.89,269.1Z"/><path class="cls-9" d="M116.7,260s0,0,0,0S116.71,259.93,116.7,260Z"/><path class="cls-9" d="M137.1,261.58c8.59,0,15.93-1,18.94-2.42.94-.44,1.47-.92,1.47-1.43,0-2.12-9.14-3.84-20.41-3.84s-20.4,1.72-20.39,3.88S125.9,261.58,137.1,261.58Zm0-6.83c9.52,0,17.23,1.33,17.23,3s-7.71,3-17.23,3-17.23-1.34-17.23-3S127.59,254.75,137.1,254.75Z"/><path class="cls-9" d="M181.73,270.58v0S181.74,270.54,181.73,270.58Z"/><path class="cls-9" d="M202.13,264.5c-11.27,0-20.4,1.72-20.39,3.88s9.19,3.81,20.39,3.81c7.66,0,14.32-.8,17.8-2a10.86,10.86,0,0,0,1.14-.45c.94-.44,1.47-.92,1.47-1.42,0-1.31-3.44-2.46-8.7-3.15A91.22,91.22,0,0,0,202.13,264.5Zm17.23,3.85c0,.49-.7,1-2,1.38-2.87.95-8.63,1.6-15.28,1.6-9.51,0-17.23-1.34-17.23-3s7.72-3,17.23-3a76.42,76.42,0,0,1,11.71.8C217.23,266.7,219.36,267.48,219.36,268.35Z"/></g></g></svg>